<svg width="1440" height="944" viewBox="0 0 1440 944" fill="none" xmlns="http://www.w3.org/2000/svg">
<g clip-path="url(#clip0_157:42)">
<path d="M1440 0H0V944H1440V0Z" fill="#C5AD5F"/>
<path d="M1118.96 -1343.71C1072.34 -1276.2 947.079 -1060.8 839.275 -938.657C731.471 -816.512 595.428 -729.716 472.132 -610.836C348.836 -491.955 211.236 -368.184 99.5005 -225.374C-12.2351 -82.5636 -100.385 109.607 -198.282 246.025C-296.178 382.443 -378.082 474.273 -487.878 593.134C-597.673 711.995 -795.525 898.184 -857.055 959.194L313.914 2323.88L2289.92 20.9733L1118.96 -1343.71Z" fill="url(#paint0_linear_157:42)"/>
<path d="M1216.54 -1229.99C1163.55 -1155.86 1009.92 -900.151 898.615 -785.212C787.306 -670.274 663.776 -651.859 548.68 -540.359C433.584 -428.859 318.893 -248.151 208.042 -116.211C97.1907 15.7294 -8.11665 126.263 -116.426 251.283C-224.734 376.303 -334.637 496.971 -441.812 633.91C-548.986 770.849 -706.53 999.749 -759.473 1072.92L313.915 2323.88L2289.92 20.9728L1216.54 -1229.99Z" fill="url(#paint1_linear_157:42)"/>
<path d="M1314.12 -1116.26C1251.94 -1048.76 1066.54 -871.684 941.028 -711.253C815.516 -550.822 698.417 -319.103 561.042 -153.679C423.668 11.7455 260.582 128.165 116.78 281.292C-27.0226 434.418 -171.992 614.189 -301.771 765.08C-431.549 915.972 -601.872 1116.38 -661.893 1186.64L313.915 2323.88L2289.92 20.9726L1314.12 -1116.26Z" fill="url(#paint2_linear_157:42)"/>
<path d="M1411.7 -1002.54C1349.03 -929.454 1171.99 -725.184 1035.71 -564.019C899.428 -402.855 723.606 -190.93 594.024 -35.554C464.442 119.823 384.432 212.311 258.215 368.24C131.999 524.169 -26.1867 744.666 -163.274 900.02C-300.362 1055.37 -497.473 1233.64 -564.312 1300.36L313.915 2323.88L2289.92 20.9727L1411.7 -1002.54Z" fill="url(#paint3_linear_157:42)"/>
<path d="M1509.28 -888.817C1465.69 -824.846 1357.63 -636.796 1247.76 -504.991C1137.88 -373.187 964.367 -227.316 850.005 -97.9896C735.643 31.3369 661.105 146.748 561.582 270.968C462.06 395.188 362.827 520.632 252.87 647.331C142.913 774.029 21.775 903.369 -98.1585 1031.16C-218.092 1158.95 -405.303 1350.27 -466.731 1414.09L313.914 2323.88L2289.92 20.9725L1509.28 -888.817Z" fill="url(#paint4_linear_157:42)"/>
<path d="M1606.86 -775.094C1538.04 -696.555 1330.32 -449.739 1193.95 -303.859C1057.58 -157.979 919.061 -42.8353 788.623 100.187C658.185 243.208 540.109 405.527 411.323 554.273C282.537 703.018 145.986 830.406 15.9069 992.663C-114.172 1154.92 -304.974 1438.62 -369.151 1527.81L313.914 2323.88L2289.92 20.9724L1606.86 -775.094Z" fill="url(#paint5_linear_157:42)"/>
<path d="M1704.44 -661.37C1642.94 -593.412 1463.47 -412.42 1335.43 -253.621C1207.4 -94.8216 1071.25 137.993 936.235 291.425C801.223 444.857 656.631 517.221 525.365 666.972C394.099 816.722 281.459 1027.5 148.637 1189.93C15.8143 1352.36 -201.535 1566.27 -271.57 1641.54L313.915 2323.88L2289.92 20.9725L1704.44 -661.37Z" fill="url(#paint6_linear_157:42)"/>
<path d="M1802.02 -547.646C1758.77 -494.702 1639.08 -330.386 1542.53 -229.982C1445.99 -129.578 1326.71 -64.9704 1222.77 54.7753C1118.83 174.521 1007.89 361.491 918.895 488.492C829.897 615.494 783.077 708.113 688.781 816.784C594.485 925.455 448.332 1045.76 353.119 1140.52C257.907 1235.28 205.36 1282.9 117.508 1385.36C29.6568 1487.82 -125.406 1693.61 -173.989 1755.26L313.914 2323.88L2289.92 20.9727L1802.02 -547.646Z" fill="url(#paint7_linear_157:42)"/>
<path d="M1899.6 -433.922C1828.5 -348.744 1609.99 -77.1097 1472.98 77.1505C1335.97 231.411 1201.29 358.534 1077.56 491.639C953.832 624.745 858.512 733.099 730.601 875.784C602.69 1018.47 444.597 1182.22 310.096 1347.75C175.594 1513.28 -11.9908 1782.11 -76.4081 1868.98L313.915 2323.88L2289.92 20.9726L1899.6 -433.922Z" fill="url(#paint8_linear_157:42)"/>
<path d="M1997.18 -320.199C1913.61 -215.293 1663.35 110.428 1495.77 309.237C1328.18 508.046 1160.36 688.739 991.667 872.654C822.977 1056.57 645.375 1227.72 483.626 1412.73C321.877 1597.74 98.2481 1887.71 21.1725 1982.71L313.915 2323.88L2289.92 20.9725L1997.18 -320.199Z" fill="url(#paint9_linear_157:42)"/>
<path d="M2094.76 -206.475C2044.47 -159.583 1890.84 -30.4484 1793.01 74.8788C1695.18 180.206 1608.6 310.169 1507.77 425.488C1406.94 540.808 1286.41 653.23 1188.02 766.794C1089.62 880.357 992.782 994.09 917.412 1106.87C842.041 1219.65 813.435 1328.23 735.792 1443.47C658.149 1558.72 554.396 1689.51 451.556 1798.34C348.717 1907.17 174.22 2046.75 118.753 2096.43L313.915 2323.88L2289.92 20.9726L2094.76 -206.475Z" fill="url(#paint10_linear_157:42)"/>
<path d="M2192.34 -92.7511C2128.79 -18.7839 1946.72 202.805 1811.01 351.052C1675.3 499.3 1514.47 644.479 1378.09 796.732C1241.71 948.985 1122.74 1104.65 992.703 1264.57C862.667 1424.49 727.27 1598.67 597.875 1756.27C468.48 1913.86 279.924 2134.51 216.334 2210.15L313.915 2323.88L2289.92 20.9726L2192.34 -92.7511Z" fill="url(#paint11_linear_157:42)"/>
</g>
<defs>
<linearGradient id="paint0_linear_157:42" x1="1208.12" y1="-1239.79" x2="-1277.43" y2="290.728" gradientUnits="userSpaceOnUse">
<stop stop-color="#C59C5F"/>
</linearGradient>
<linearGradient id="paint1_linear_157:42" x1="1287.25" y1="-1147.58" x2="-1206.61" y2="347.556" gradientUnits="userSpaceOnUse">
<stop stop-color="#BDA24A"/>
<stop offset="0.0833333" stop-color="#BD8F4A"/>
</linearGradient>
<linearGradient id="paint2_linear_157:42" x1="1399" y1="-1017.33" x2="-1107.01" y2="417.339" gradientUnits="userSpaceOnUse">
<stop stop-color="#AC933E"/>
<stop offset="0.166667" stop-color="#AC813E"/>
</linearGradient>
<linearGradient id="paint3_linear_157:42" x1="1499.22" y1="-900.545" x2="-1017.51" y2="465.903" gradientUnits="userSpaceOnUse">
<stop stop-color="#978137"/>
<stop offset="0.25" stop-color="#977137"/>
</linearGradient>
<linearGradient id="paint4_linear_157:42" x1="1587.34" y1="-797.838" x2="-937.568" y2="493.418" gradientUnits="userSpaceOnUse">
<stop stop-color="#826F2F"/>
<stop offset="0.333333" stop-color="#82612F"/>
</linearGradient>
<linearGradient id="paint5_linear_157:42" x1="1640.97" y1="-735.346" x2="-887.572" y2="500.92" gradientUnits="userSpaceOnUse">
<stop stop-color="#6E5D28"/>
<stop offset="0.416667" stop-color="#6E5128"/>
</linearGradient>
<linearGradient id="paint6_linear_157:42" x1="1745.27" y1="-613.785" x2="-783.797" y2="487.966" gradientUnits="userSpaceOnUse">
<stop stop-color="#594B20"/>
<stop offset="0.5" stop-color="#594120"/>
</linearGradient>
<linearGradient id="paint7_linear_157:42" x1="1822.75" y1="-523.492" x2="-695.24" y2="445.674" gradientUnits="userSpaceOnUse">
<stop stop-color="#443919"/>
<stop offset="0.583333" stop-color="#443219"/>
</linearGradient>
<linearGradient id="paint8_linear_157:42" x1="1910.47" y1="-421.257" x2="-568.447" y2="348.247" gradientUnits="userSpaceOnUse">
<stop stop-color="#2F2811"/>
<stop offset="0.666667" stop-color="#2F2311"/>
</linearGradient>
<linearGradient id="paint9_linear_157:42" x1="2014.37" y1="-300.17" x2="-331.312" y2="133.608" gradientUnits="userSpaceOnUse">
<stop stop-color="#1A1609"/>
<stop offset="0.75" stop-color="#1A1309"/>
</linearGradient>
<linearGradient id="paint10_linear_157:42" x1="2081.93" y1="-221.428" x2="-60.1675" y2="-77.7936" gradientUnits="userSpaceOnUse">
<stop stop-color="#050402"/>
<stop offset="0.833333" stop-color="#050302"/>
</linearGradient>
<linearGradient id="paint11_linear_157:42" x1="2178.55" y1="-108.828" x2="698.964" y2="-400.588" gradientUnits="userSpaceOnUse">
<stop/>
<stop offset="0.916667"/>
</linearGradient>
<clipPath id="clip0_157:42">
<rect width="1440" height="944" fill="white"/>
</clipPath>
</defs>
</svg>
