<?xml version="1.0" standalone="no"?>
<!DOCTYPE svg PUBLIC "-//W3C//DTD SVG 20010904//EN"
 "http://www.w3.org/TR/2001/REC-SVG-20010904/DTD/svg10.dtd">
<svg version="1.0" xmlns="http://www.w3.org/2000/svg"
 width="536.000000pt" height="466.000000pt" viewBox="0 0 536.000000 466.000000"
 preserveAspectRatio="xMidYMid meet">

<g transform="translate(0.000000,466.000000) scale(0.100000,-0.100000)"
fill="#000000" stroke="none">
<path d="M2620 3361 c-73 -24 -143 -85 -156 -138 -21 -80 64 -131 131 -78 18
14 16 14 -14 0 -41 -20 -78 -13 -93 20 -15 34 -3 69 40 114 43 45 132 77 187
67 46 -9 79 -51 71 -91 -11 -53 -45 -111 -98 -166 -50 -52 -88 -105 -88 -123
0 -5 12 6 28 26 15 20 55 68 89 107 34 39 69 84 78 100 23 45 19 105 -8 137
-20 23 -33 28 -83 30 -32 2 -70 0 -84 -5z"/>
<path d="M2611 3184 c0 -11 3 -14 6 -6 3 7 2 16 -1 19 -3 4 -6 -2 -5 -13z"/>
<path d="M2590 2772 c0 -16 35 -40 105 -70 105 -45 158 -59 410 -103 465 -83
624 -145 726 -283 38 -52 37 -29 -2 34 -19 31 -55 67 -93 94 -169 121 -376
187 -691 221 -189 21 -314 48 -389 86 -66 32 -66 32 -66 21z"/>
<path d="M1825 2621 c-54 -13 -90 -39 -153 -105 -143 -154 -222 -370 -222
-614 0 -94 21 -215 46 -263 43 -85 112 -129 202 -129 132 0 233 92 342 312 74
148 86 178 72 178 -4 0 -39 -63 -76 -139 -105 -219 -181 -287 -309 -279 -79 5
-117 30 -151 101 -80 166 -54 448 65 692 108 222 275 283 357 130 24 -45 21
-167 -5 -226 -22 -49 -71 -93 -116 -104 -34 -9 -77 17 -77 46 0 26 23 69 49
93 36 32 21 76 -25 76 -29 0 -80 -60 -94 -110 -21 -77 25 -130 113 -130 150 0
247 223 167 385 -35 71 -108 104 -185 86z"/>
<path d="M3205 2423 c-65 -65 -112 -202 -121 -354 -7 -108 -8 -110 -35 -125
-43 -22 -49 -18 -49 34 0 77 -33 121 -82 109 -32 -8 -52 -55 -44 -101 6 -32
44 -76 78 -89 20 -8 -11 -27 -44 -27 -40 0 -63 40 -63 110 1 68 27 118 75 142
31 16 32 18 11 18 -36 0 -90 -38 -110 -79 -11 -20 -24 -62 -29 -92 -25 -130
-87 -263 -121 -257 -23 4 -25 60 -7 198 18 136 14 145 -51 135 l-43 -6 6 45
c7 50 -5 76 -37 76 -46 0 -65 -88 -28 -134 21 -26 21 -28 3 -49 -39 -47 -99
-107 -106 -107 -4 0 -8 22 -8 49 0 60 -14 101 -35 101 -13 0 -34 -24 -120
-135 l-15 -20 -16 20 c-28 36 -6 133 49 208 33 44 68 32 87 -30 8 -27 8 -27 9
10 1 28 -6 45 -24 62 -32 33 -67 31 -108 -5 -92 -80 -110 -289 -28 -315 35
-11 62 15 99 93 l36 77 6 -60 c10 -86 17 -105 44 -105 25 0 53 27 118 114 39
52 49 59 82 61 34 2 37 0 32 -19 -4 -12 -9 -66 -12 -121 -5 -89 -3 -103 15
-132 16 -25 28 -33 50 -33 38 0 63 34 100 136 l28 76 21 -36 c12 -20 34 -41
48 -46 40 -16 92 5 116 45 16 28 75 75 94 75 2 0 4 -13 4 -30 0 -58 22 -133
47 -158 19 -19 31 -23 56 -18 41 8 58 25 108 108 l43 70 13 -46 c10 -34 20
-47 37 -52 39 -10 64 13 105 93 l38 77 7 -64 c9 -79 21 -102 49 -98 29 4 177
189 150 188 -4 -1 -19 -16 -33 -34 -14 -18 -40 -50 -58 -71 -40 -44 -52 -36
-52 33 0 49 -14 82 -34 82 -8 0 -37 -29 -65 -63 -66 -84 -80 -95 -92 -76 -35
56 35 239 93 239 23 0 47 -26 48 -52 0 -10 5 -18 11 -18 15 0 3 48 -20 80 -11
16 -30 26 -50 28 -61 6 -141 -99 -141 -186 0 -30 -93 -175 -126 -197 -55 -36
-79 30 -79 214 0 121 2 135 19 145 47 27 95 80 115 126 21 50 31 145 17 168
-11 18 -62 15 -81 -5z m63 -51 c5 -53 -24 -135 -66 -182 -53 -60 -64 -51 -41
37 29 109 65 185 86 181 12 -2 19 -14 21 -36z m-698 -261 c0 -27 -12 -61 -20
-61 -13 0 -22 39 -16 65 7 27 36 24 36 -4z m386 -49 c34 -22 40 -142 7 -142
-23 0 -73 56 -73 82 0 45 37 79 66 60z"/>
</g>
</svg>
