<svg width="39" height="33" viewBox="0 0 39 33" fill="none" xmlns="http://www.w3.org/2000/svg">
<path d="M1.75 0.375C0.783502 0.375 0 1.07456 0 1.9375C0 2.80044 0.783502 3.5 1.75 3.5H5.44031L6.06923 8.3666C6.07175 8.38614 6.07469 8.40564 6.07804 8.42509L8.77035 24.0501C8.90169 24.8123 9.63625 25.375 10.5 25.375H33.25C34.0842 25.375 34.8024 24.8493 34.966 24.1189L38.466 8.49393C38.5688 8.03491 38.4357 7.5589 38.1033 7.19689C37.771 6.83488 37.2743 6.625 36.75 6.625H9.36738L8.73847 1.7584C8.63658 0.969978 7.88889 0.375 7 0.375H1.75Z" fill="white"/>
<path d="M11.375 30.0625C11.375 28.7681 12.5503 27.7188 14 27.7188H14.0175C15.4672 27.7188 16.6425 28.7681 16.6425 30.0625C16.6425 31.3569 15.4672 32.4062 14.0175 32.4062H14C12.5503 32.4062 11.375 31.3569 11.375 30.0625Z" fill="white"/>
<path d="M28 27.7188C26.5503 27.7188 25.375 28.7681 25.375 30.0625C25.375 31.3569 26.5503 32.4062 28 32.4062H28.0175C29.4672 32.4062 30.6425 31.3569 30.6425 30.0625C30.6425 28.7681 29.4672 27.7188 28.0175 27.7188H28Z" fill="white"/>
</svg>
