<svg width="29" height="18" viewBox="0 0 29 18" fill="none" xmlns="http://www.w3.org/2000/svg">
<path d="M27.3333 1.45333C26.8337 0.956664 26.1578 0.677887 25.4533 0.677887C24.7488 0.677887 24.073 0.956664 23.5733 1.45333L14 10.8933L4.56 1.45333C4.06037 0.956664 3.3845 0.677887 2.68 0.677887C1.97551 0.677887 1.29963 0.956664 0.800001 1.45333C0.550059 1.70123 0.351673 1.99617 0.21629 2.32113C0.080907 2.64609 0.0112057 2.99464 0.0112057 3.34667C0.0112057 3.6987 0.080907 4.04725 0.21629 4.3722C0.351673 4.69716 0.550059 4.9921 0.800001 5.24L12.1067 16.5467C12.3546 16.7966 12.6495 16.995 12.9745 17.1304C13.2994 17.2658 13.648 17.3355 14 17.3355C14.352 17.3355 14.7006 17.2658 15.0255 17.1304C15.3505 16.995 15.6454 16.7966 15.8933 16.5467L27.3333 5.24C27.5833 4.9921 27.7817 4.69716 27.917 4.3722C28.0524 4.04725 28.1221 3.6987 28.1221 3.34667C28.1221 2.99464 28.0524 2.64609 27.917 2.32113C27.7817 1.99617 27.5833 1.70123 27.3333 1.45333Z" fill="white"/>
</svg>
