<svg width="193" height="114" viewBox="0 0 193 114" fill="none" xmlns="http://www.w3.org/2000/svg">
<path d="M93.7404 0.354013C87.8916 1.82754 82.2832 5.57277 81.2417 8.82681C79.5592 13.7386 86.3694 16.8698 91.7374 13.6158C93.1796 12.7562 93.0193 12.7562 90.6157 13.6158C87.3308 14.8437 84.3664 14.4139 83.1646 12.3878C81.9628 10.3003 82.9242 8.15144 86.3694 5.38857C89.8145 2.62571 96.9452 0.660999 101.352 1.27497C105.037 1.82754 107.681 4.40622 107.04 6.8621C106.159 10.1161 103.435 13.6772 99.1886 17.054C95.1826 20.2467 92.138 23.5007 92.138 24.6059C92.138 24.9128 93.0994 24.2375 94.3814 23.0095C95.5832 21.7816 98.788 18.8345 101.512 16.44C104.236 14.0456 107.04 11.2827 107.761 10.3003C109.604 7.53747 109.284 3.85365 107.12 1.88894C105.518 0.476809 104.476 0.169823 100.47 0.0470276C97.9066 -0.0757656 94.8621 0.0470276 93.7404 0.354013Z" fill="#D3A76E"/>
<path d="M93.0193 11.2213C93.0193 11.8967 93.2596 12.0809 93.5 11.5897C93.7403 11.1599 93.6602 10.6073 93.4199 10.4231C93.1795 10.1775 92.9391 10.5459 93.0193 11.2213Z" fill="#D3A76E"/>
<path d="M91.3368 36.5169C91.3368 37.4993 94.141 38.9728 99.7494 40.8147C108.162 43.5776 112.408 44.4371 132.599 47.1386C169.854 52.2346 182.593 56.0412 190.766 64.514C193.81 67.7066 193.73 66.2945 190.605 62.4265C189.083 60.5232 186.199 58.3129 183.154 56.6552C169.614 49.2261 153.029 45.1739 127.791 43.0864C112.649 41.7971 102.634 40.1393 96.6247 37.8063C91.3368 35.8416 91.3368 35.8416 91.3368 36.5169Z" fill="#D3A76E"/>
<path d="M30.045 45.7879C25.7185 46.586 22.8342 48.1824 17.7866 52.2346C6.32948 61.6897 0 74.9515 0 89.9324C0 95.7037 1.68252 103.133 3.68552 106.08C7.13068 111.299 12.659 114 19.8698 114C30.4456 114 38.5377 108.351 47.2708 94.8441C53.1997 85.7574 54.1611 83.9154 53.0394 83.9154C52.7189 83.9154 49.9147 87.7835 46.9503 92.4496C38.5377 105.896 32.4486 110.071 22.1932 109.579C15.8638 109.272 12.8192 107.738 10.0951 103.378C3.68552 93.1864 5.76864 75.8724 15.3029 60.8916C23.9559 47.2614 37.3359 43.5162 43.9058 52.9099C45.8286 55.6728 45.5883 63.1632 43.5051 66.7857C41.7425 69.7941 37.8166 72.4956 34.2112 73.171C31.4872 73.7235 28.042 72.1272 28.042 70.3467C28.042 68.7504 29.8848 66.1103 31.9679 64.6368C34.8522 62.6721 33.6504 59.9706 29.9649 59.9706C27.6414 59.9706 23.5553 63.6544 22.4336 66.7243C20.7511 71.4518 24.4366 74.7059 31.4872 74.7059C43.5051 74.7059 51.2768 61.0143 44.8672 51.068C42.063 46.7088 36.2142 44.6827 30.045 45.7879Z" fill="white"/>
<path d="M140.611 57.9445C135.403 61.9353 131.637 70.3467 130.916 79.6791C130.355 86.3099 130.275 86.4327 128.112 87.3537C124.667 88.7044 124.186 88.4588 124.186 85.2662C124.186 80.5386 121.542 77.8371 117.616 78.5739C115.052 79.0651 113.45 81.9507 114.091 84.775C114.572 86.7397 117.616 89.4412 120.34 90.2393C121.943 90.7305 119.459 91.8971 116.815 91.8971C113.61 91.8971 111.767 89.4412 111.767 85.1434C111.848 80.9684 113.931 77.8985 117.776 76.425C120.26 75.4427 120.34 75.3199 118.658 75.3199C115.773 75.3199 111.447 77.653 109.845 80.1702C108.963 81.3982 107.922 83.9768 107.521 85.8188C105.518 93.8004 100.551 101.966 97.8265 101.598C95.9838 101.352 95.8235 97.914 97.2657 89.4412C98.7078 81.0912 98.3874 80.5386 93.1796 81.1526L89.7344 81.521L90.2151 78.7581C90.776 75.6882 89.8145 74.0919 87.2507 74.0919C83.5652 74.0919 82.0429 79.4949 85.0073 82.3191C86.6898 83.9154 86.6898 84.0382 85.2477 85.3276C82.123 88.2132 77.3158 91.8971 76.755 91.8971C76.4345 91.8971 76.114 90.5463 76.114 88.8886C76.114 85.2048 74.9923 82.6875 73.3098 82.6875C72.2682 82.6875 70.5857 84.161 63.6954 90.9761L62.4936 92.2041L61.2117 90.9761C58.9683 88.7658 60.731 82.8103 65.1376 78.2055C67.7815 75.5041 70.5857 76.2408 72.108 80.0474C72.749 81.7052 72.749 81.7052 72.8291 79.4335C72.9092 77.7143 72.3484 76.6706 70.9062 75.6268C68.3424 73.6007 65.5382 73.7235 62.2532 75.9338C54.8822 80.8456 53.4401 93.6776 60.0099 95.2739C62.8141 95.9493 64.9773 94.3529 67.9418 89.564L70.8261 84.8364L71.3068 88.5202C72.108 93.8004 72.6688 94.9669 74.8321 94.9669C76.8351 94.9669 79.0784 93.3092 84.2862 87.9677C87.4109 84.775 88.2121 84.3452 90.8561 84.2224C93.5802 84.0996 93.8205 84.2224 93.4199 85.389C93.0994 86.1257 92.6988 89.4412 92.4585 92.818C92.0579 98.2824 92.2181 99.1419 93.6603 100.922C94.9422 102.457 95.9036 102.949 97.6663 102.949C100.711 102.949 102.714 100.861 105.678 94.5985L107.922 89.9324L109.604 92.1427C110.566 93.3706 112.328 94.6599 113.45 94.9669C116.655 95.9493 120.821 94.6599 122.744 92.2041C124.026 90.4849 128.753 87.5993 130.275 87.5993C130.435 87.5993 130.596 88.3974 130.596 89.4412C130.596 93.0022 132.358 97.607 134.361 99.1419C135.883 100.308 136.845 100.554 138.848 100.247C142.133 99.7559 143.495 98.7121 147.501 93.6162L150.946 89.3184L151.988 92.1427C152.789 94.2302 153.59 95.0283 154.952 95.3353C158.077 95.9493 160.08 94.5371 163.365 89.6254L166.409 84.8978L166.97 88.8272C167.691 93.6776 168.653 95.0897 170.896 94.8441C173.219 94.5985 185.077 83.2401 182.914 83.3015C182.593 83.3629 181.392 84.2838 180.27 85.389C179.148 86.4941 177.065 88.4588 175.623 89.7482C172.418 92.4496 171.457 91.9585 171.457 87.7221C171.457 84.7136 170.335 82.6875 168.733 82.6875C168.092 82.6875 165.768 84.468 163.525 86.5555C158.237 91.7129 157.115 92.3882 156.154 91.2217C153.35 87.7835 158.958 76.5478 163.605 76.5478C165.448 76.5478 167.371 78.1441 167.451 79.7404C167.451 80.3544 167.851 80.8456 168.332 80.8456C169.534 80.8456 168.572 77.8985 166.73 75.9338C165.848 74.9515 164.326 74.3375 162.724 74.2147C157.836 73.8463 151.427 80.293 151.427 85.6346C151.427 87.4765 143.976 96.3791 141.332 97.7298C136.925 99.9401 135.002 95.8879 135.002 84.5908C135.002 77.1618 135.162 76.3022 136.524 75.6882C140.29 74.0305 144.136 70.7765 145.738 67.9522C147.421 64.8824 148.222 59.0496 147.1 57.6375C146.219 56.5324 142.133 56.7166 140.611 57.9445ZM145.658 61.0757C146.059 64.3298 143.735 69.3643 140.37 72.25C136.124 75.9338 135.243 75.3813 137.085 69.9783C139.409 63.286 142.293 58.6199 143.976 58.8655C144.937 58.9882 145.498 59.725 145.658 61.0757ZM89.7344 77.1004C89.7344 78.7581 88.773 80.8456 88.132 80.8456C87.0904 80.8456 86.3694 78.4511 86.8501 76.8548C87.4109 75.1971 89.7344 75.3813 89.7344 77.1004ZM120.661 80.1088C123.385 81.4596 123.866 88.8272 121.222 88.8272C119.379 88.8272 115.373 85.389 115.373 83.7927C115.373 81.0298 118.337 78.9423 120.661 80.1088Z" fill="white"/>
</svg>
