<svg width="64" height="52" viewBox="0 0 64 52" fill="none" xmlns="http://www.w3.org/2000/svg">
<path d="M64 6.156C61.62 7.2 59.084 7.892 56.44 8.228C59.16 6.604 61.236 4.052 62.212 0.976C59.676 2.488 56.876 3.556 53.892 4.152C51.484 1.588 48.052 0 44.308 0C37.044 0 31.196 5.896 31.196 13.124C31.196 14.164 31.284 15.164 31.5 16.116C20.592 15.584 10.94 10.356 4.456 2.392C3.324 4.356 2.66 6.604 2.66 9.024C2.66 13.568 5 17.596 8.488 19.928C6.38 19.888 4.312 19.276 2.56 18.312C2.56 18.352 2.56 18.404 2.56 18.456C2.56 24.832 7.108 30.128 13.072 31.348C12.004 31.64 10.84 31.78 9.632 31.78C8.792 31.78 7.944 31.732 7.148 31.556C8.848 36.752 13.672 40.572 19.408 40.696C14.944 44.188 9.276 46.292 3.14 46.292C2.064 46.292 1.032 46.244 0 46.112C5.812 49.86 12.7 52 20.128 52C44.272 52 57.472 32 57.472 14.664C57.472 14.084 57.452 13.524 57.424 12.968C60.028 11.12 62.216 8.812 64 6.156Z" fill="white"/>
</svg>
