<svg width="36" height="38" viewBox="0 0 36 38" fill="none" xmlns="http://www.w3.org/2000/svg">
<path d="M18.0001 0.25C12.2011 0.25 7.50008 4.44733 7.50008 9.625C7.50008 14.8027 12.2011 19 18.0001 19C23.7991 19 28.5001 14.8027 28.5001 9.625C28.5001 4.44733 23.7991 0.25 18.0001 0.25Z" fill="white"/>
<path d="M28.5001 22.125L7.50008 22.125C5.09147 22.125 2.80469 23.0552 1.42632 24.5611C-0.024153 26.1459 -0.425479 28.3693 1.13746 30.432C4.49176 34.8588 10.931 37.75 18.0001 37.75C25.0692 37.75 31.5084 34.8588 34.8627 30.432C36.4256 28.3693 36.0243 26.1459 34.5738 24.5611C33.1955 23.0552 30.9087 22.125 28.5001 22.125Z" fill="white"/>
</svg>
