<svg xmlns="http://www.w3.org/2000/svg" version="1.1" xmlns:xlink="http://www.w3.org/1999/xlink" xmlns:svgjs="http://svgjs.dev/svgjs" viewBox="0 0 1920 1080"><rect width="1440" height="900" fill="#b09c5e"></rect><g transform="matrix(0.8131727983645296,0.8131727983645296,-0.8131727983645296,0.8131727983645296,613.300025919812,-657.267889648841)"><path d="M0,-1080C-5.4831973149246345,-1010.5037242521215,-29.229160862038032,-812.2196503946923,-32.89918388954781,-663.0223455127293C-36.56920691705758,-513.8250406307664,-33.43550673423592,-347.50284576620993,-22.02013816505864,-184.81617070822236C-10.604769595881356,-22.12949565023476,22.940853776796033,145.3118029647051,35.59302752551591,313.0977048351962C48.24520127423578,480.8836067056874,69.0446093443205,672.2077873104051,53.89290432726061,821.8992405147244C38.74119931020072,971.5906937190437,-55.46742515346448,1066.0589602776095,-55.317202576843435,1211.2464240611118C-55.16698000022239,1356.4338878446142,45.57470602417967,1534.8984272259245,54.79423978698691,1693.0240232157391C64.01377354979415,1851.1496192055538,9.132373297831151,2082.1706705359566,0,2160L 1920 2160 L 1920 -1080 Z" fill="url(&quot;#SvgjsLinearGradient1128&quot;)"></path><path d="M213.33333333333331,-1080C214.7455108023529,-981.5251824459549,213.8414840167145,-669.4833235642941,221.80639814745086,-489.1510946757295C229.77131227818722,-308.8188657871649,253.36212483829556,-173.12980398864786,261.12281811775154,1.9933733313874953C268.88351139720754,177.11655065142284,278.2486007739801,386.9239697299222,268.3705578241868,561.5879692444827C258.49251487439346,736.2519687590432,218.16345460801548,877.1327371598776,201.85456041899175,1049.9773704187503C185.54566622996802,1222.822003677623,168.6040638709874,1413.6519972008437,170.51719269004434,1598.6557687977186C172.43032150910128,1783.6595403945935,206.19730989278514,2066.442628132953,213.33333333333331,2160L 1920 2160 L 1920 -1080 Z" fill="url(&quot;#SvgjsLinearGradient1129&quot;)"></path><path d="M426.66666666666663,-1080C429.44712348235714,-994.0993129574763,451.5929547254263,-720.0402457857086,443.3494075608098,-564.5958777448581C435.10586039619335,-409.1515097040075,388.5515622045266,-286.6518150871698,377.2053836789679,-147.3337917548966C365.8592051534092,-8.015768422623438,367.955989163141,119.45232829344627,375.27233640745783,271.3122622487808C382.58868365177466,423.1721962041154,417.03246806719363,609.3553782698093,421.1034671448689,763.8258119771107C425.17446622254414,918.296245684412,395.3396329809031,1047.5757960784022,399.69833087350935,1198.1348644925888C404.0570287661156,1348.6939329067754,442.76093186831355,1506.8693665443284,447.2556545005064,1667.1802224622302C451.75037713269927,1827.491078380132,430.09816463897323,2077.8633704103718,426.66666666666663,2160L 1920 2160 L 1920 -1080 Z" fill="url(&quot;#SvgjsLinearGradient1130&quot;)"></path><path d="M640,-1080C643.6838180702503,-1016.9658280651971,671.3273196244018,-831.2683905740236,662.1029084215013,-701.7949683911827C652.8784972186008,-572.3215462083418,590.8738767687512,-432.8350150225084,584.653532782597,-303.1594669029548C578.4331887964429,-173.48391878340126,608.6573067380617,-56.94776216525571,624.7808445045761,76.25832032613872C640.9043822710904,209.46440281753314,678.5529201156045,345.9824464754307,681.3947593816831,496.0770280454117C684.2365986477618,646.1716096153926,650.3785420772538,826.383121469872,641.8318801010481,976.8258097460243C633.2852181248425,1127.2684980221768,635.5814698982631,1267.1899350620504,630.1147875244494,1398.733157702326C624.6481051506357,1530.2763803426017,607.384250445574,1639.207338538066,609.0317858581658,1766.0851455876784C610.6793212707576,1892.9629526372908,634.838630976361,2094.347524264613,640,2160L 1920 2160 L 1920 -1080 Z" fill="url(&quot;#SvgjsLinearGradient1131&quot;)"></path><path d="M853.3333333333333,-1080C855.5268519620387,-1006.1174418813275,865.0537498622703,-786.8024201491131,866.4944451055655,-636.7046512879649C867.9351403488608,-486.6068824268167,854.4686738019293,-335.1491678512019,861.9775047931047,-179.41338683311085C869.4863357842801,-23.677605815019774,916.7071009386685,143.42397720524323,911.5474310526179,297.7100348205816C906.3877611665672,451.99609243592,834.2959197002316,595.321291612258,831.0194854768006,746.3029588589193C827.7430512533696,897.2846261055805,890.3246336098732,1039.1980269422143,891.8888257120318,1203.6000383005487C893.4530178141904,1368.0020496588832,846.8305534862017,1573.3150333923504,840.4046380897519,1732.7150270089257C833.9787226933021,1892.115020625501,851.1785507927364,2088.785837834821,853.3333333333333,2160L 1920 2160 L 1920 -1080 Z" fill="url(&quot;#SvgjsLinearGradient1132&quot;)"></path><path d="M1066.6666666666667,-1080C1069.0053220398306,-941.0463694975043,1071.227941739256,-509.85853819900694,1080.6985989056504,-246.27821698502612C1090.1692560720448,17.302104228954704,1125.4223033960186,240.69793329215668,1123.4906096650327,501.48192728388483C1121.5589159340468,762.265921275613,1078.5790936861297,1042.0060681793236,1069.1084365197353,1318.4257469653428C1059.6377793533409,1594.845425751362,1067.073628308845,2019.7376244942238,1066.6666666666667,2160L 1920 2160 L 1920 -1080 Z" fill="url(&quot;#SvgjsLinearGradient1133&quot;)"></path><path d="M1280,-1080C1283.7008893975926,-967.0401897140832,1293.2702223767565,-623.8899444426869,1302.2053363855557,-402.2411382844995C1311.140450394355,-180.59233212631213,1329.8464003488762,33.693161633003996,1333.6106840527948,249.89283694912442C1337.3749677567134,466.09251226524486,1343.4386521053366,685.2318477159229,1324.7910386090678,894.956913612223C1306.143425112799,1104.6819795085232,1229.1901761766937,1297.4027179289626,1221.7250030751825,1508.2432323269254C1214.2598299736712,1719.0837467248882,1270.2875005125304,2051.3738720544875,1280,2160L 1920 2160 L 1920 -1080 Z" fill="url(&quot;#SvgjsLinearGradient1134&quot;)"></path><path d="M1493.3333333333333,-1080C1500.7614863377792,-1005.5933971963843,1540.9558102639348,-792.6795708899114,1537.9022513600087,-633.5603831783056C1534.8486924560825,-474.4411954666999,1490.8611261198705,-275.34133650022073,1475.011979909776,-125.2848737303657C1459.1628336996816,24.771589039489314,1432.9080371354376,124.61955252202247,1442.807374099442,266.7783934408246C1452.7067110634466,408.9372343596267,1530.150268860803,561.1285029379376,1534.4080016938037,727.668171782447C1538.6657345268045,894.2078406269563,1466.6315222554103,1104.5477944191546,1468.353771097446,1266.016406507881C1470.0760199394817,1427.4850185966072,1540.5782343733695,1547.4825787327854,1544.7414947460175,1696.4798443148052C1548.9047551186654,1845.477109896825,1501.9013602354473,2082.746640719134,1493.3333333333333,2160L 1920 2160 L 1920 -1080 Z" fill="url(&quot;#SvgjsLinearGradient1135&quot;)"></path><path d="M1706.6666666666665,-1080C1698.8133790742952,-987.1491507834984,1668.4058696162106,-710.4553339234008,1659.5469411124382,-522.8949047009902C1650.6880126086658,-335.33447547857963,1654.724323449333,-127.5782787950875,1653.5130956440325,45.36257533446329C1652.301867838732,218.30342946401407,1651.0091477423884,340.0988532970232,1652.2795742806347,514.7502200763147C1653.550000818881,689.4015868556062,1652.1361155435159,903.457078182762,1661.1356548735107,1093.270776010212C1670.1351942035055,1283.0844738376622,1698.688308295078,1475.8442030427175,1706.276810260604,1653.6324070410155C1713.8653122261298,1831.4206110393136,1706.6016905989895,2075.6054011735027,1706.6666666666665,2160L 1920 2160 L 1920 -1080 Z" fill="url(&quot;#SvgjsLinearGradient1136&quot;)"></path></g><defs><linearGradient x1="0.1" y1="0" x2="0" y2="1" id="SvgjsLinearGradient1128"><stop stop-color="#b09c5e" offset="0"></stop><stop stop-color="#b08e5e" offset="0"></stop></linearGradient><linearGradient x1="0.1" y1="0" x2="0" y2="1" id="SvgjsLinearGradient1129"><stop stop-color="#9e8a4e" offset="0"></stop><stop stop-color="#9e7d4e" offset="0.1111111111111111"></stop></linearGradient><linearGradient x1="0.1" y1="0" x2="0" y2="1" id="SvgjsLinearGradient1130"><stop stop-color="#877642" offset="0"></stop><stop stop-color="#876a42" offset="0.2222222222222222"></stop></linearGradient><linearGradient x1="0.1" y1="0" x2="0" y2="1" id="SvgjsLinearGradient1131"><stop stop-color="#706237" offset="0"></stop><stop stop-color="#705837" offset="0.3333333333333333"></stop></linearGradient><linearGradient x1="0.1" y1="0" x2="0" y2="1" id="SvgjsLinearGradient1132"><stop stop-color="#594e2c" offset="0"></stop><stop stop-color="#59462c" offset="0.4444444444444444"></stop></linearGradient><linearGradient x1="0.1" y1="0" x2="0" y2="1" id="SvgjsLinearGradient1133"><stop stop-color="#423920" offset="0"></stop><stop stop-color="#423320" offset="0.5555555555555556"></stop></linearGradient><linearGradient x1="0.1" y1="0" x2="0" y2="1" id="SvgjsLinearGradient1134"><stop stop-color="#2b2515" offset="0"></stop><stop stop-color="#2b2115" offset="0.6666666666666666"></stop></linearGradient><linearGradient x1="0.1" y1="0" x2="0" y2="1" id="SvgjsLinearGradient1135"><stop stop-color="#13110a" offset="0"></stop><stop stop-color="#130f0a" offset="0.7777777777777778"></stop></linearGradient><linearGradient x1="0.1" y1="0" x2="0" y2="1" id="SvgjsLinearGradient1136"><stop stop-color="#000000" offset="0"></stop><stop stop-color="#000000" offset="0.8888888888888888"></stop></linearGradient></defs></svg>